<?xml version="1.0" standalone="no"?>
<!DOCTYPE svg PUBLIC "-//W3C//DTD SVG 20010904//EN"
 "http://www.w3.org/TR/2001/REC-SVG-20010904/DTD/svg10.dtd">
<svg version="1.0" xmlns="http://www.w3.org/2000/svg"
 width="300.000000pt" height="300.000000pt" viewBox="0 0 300.000000 300.000000"
 preserveAspectRatio="xMidYMid meet">
<metadata>
Created by potrace 1.11, written by Peter Selinger 2001-2013
</metadata>
<g transform="translate(0.000000,300.000000) scale(0.100000,-0.100000)"
fill="#000000" stroke="none">
<path d="M1460 2958 c0 -65 -28 -181 -59 -251 -41 -92 -50 -128 -55 -232 -6
-127 -21 -157 -46 -92 -48 130 -92 202 -146 243 -20 16 -61 66 -91 112 -50 78
-115 152 -134 152 -4 0 -14 3 -23 6 -12 5 -9 -9 14 -57 26 -56 30 -79 34 -174
6 -134 12 -160 65 -266 45 -91 52 -122 24 -112 -18 6 -153 101 -163 114 -12
16 -106 69 -122 69 -40 0 -260 95 -305 132 -9 8 -13 6 -13 -4 0 -18 41 -81 80
-123 15 -16 47 -57 71 -90 56 -78 107 -129 194 -195 90 -69 125 -101 125 -115
0 -13 -125 -2 -265 24 -77 15 -128 18 -220 14 -116 -4 -174 -8 -185 -12 -3 -1
31 -17 75 -35 118 -48 156 -70 216 -121 30 -26 73 -58 96 -71 49 -30 235 -96
348 -125 95 -24 174 -67 214 -116 l29 -35 -4 -152 c-7 -295 -15 -755 -20
-1097 l-4 -346 290 0 c208 0 290 3 291 11 1 6 2 20 1 31 0 11 -3 155 -7 320
-3 165 -8 386 -10 490 -2 105 -7 316 -10 470 -6 270 -6 281 13 298 11 10 88
45 172 78 84 33 165 68 180 79 16 11 31 20 35 20 3 0 33 18 66 41 33 22 106
61 162 85 56 24 121 58 144 74 23 17 60 37 83 45 44 16 115 61 143 93 l19 21
-49 -13 c-26 -7 -82 -14 -123 -15 -117 -4 -210 -10 -218 -15 -4 -2 -35 -7 -68
-10 -34 -4 -92 -18 -129 -31 -37 -14 -72 -25 -77 -25 -20 0 17 44 77 91 35 27
89 82 118 122 30 40 84 100 121 134 67 65 116 128 116 151 0 10 -8 8 -28 -6
-25 -18 -102 -45 -209 -72 -22 -6 -69 -30 -102 -55 -33 -25 -82 -54 -108 -65
-27 -12 -74 -34 -105 -50 -32 -16 -58 -28 -58 -27 0 1 11 29 25 62 13 33 25
69 25 80 0 11 6 31 13 45 34 65 70 126 82 140 38 45 75 157 74 225 0 22 -3 33
-6 25 -3 -8 -21 -38 -40 -66 -27 -41 -46 -58 -101 -84 -49 -25 -90 -56 -152
-120 -47 -47 -109 -106 -138 -129 -29 -24 -59 -59 -68 -79 -23 -57 -37 -27
-40 85 -1 54 -8 123 -17 153 -9 30 -16 77 -16 104 0 58 -24 143 -56 206 -40
76 -45 80 -45 38z"/>
</g>
</svg>
